<svg width="96" height="12" viewBox="0 0 96 12" fill="none" xmlns="http://www.w3.org/2000/svg">
<path d="M0 10.8611H1.90319V4.125H2.19599L5.92916 10.8611H8.49114V1.13889H6.58796V7.875H6.29516L2.56198 1.13889H0V10.8611Z" fill="white"/>
<path d="M10.9868 10.8611H12.89V1.13889H10.9868V10.8611Z" fill="white"/>
<path d="M22.5563 7.38889C22.2489 8.22222 21.473 9.26389 19.9211 9.26389C18.1643 9.26389 16.8467 8 16.8467 6C16.8467 4 18.1643 2.73611 19.9211 2.73611C21.473 2.73611 22.2489 3.77778 22.5563 4.54167H24.5327C24.2253 3.22222 22.9369 1 19.9211 1C17.1542 1 14.9436 3.06944 14.9436 6C14.9436 8.93056 17.1542 11 19.9211 11C23.1565 11 24.2985 8.5 24.5327 7.38889H22.5563Z" fill="white"/>
<path d="M26.441 10.8611H28.3442V6.34722L32.1506 10.8611H34.493L30.3206 5.93056L34.2002 1.13889H31.8578L28.3442 5.51389V1.13889H26.441V10.8611Z" fill="white"/>
<path d="M38.4526 10.8611H40.5754L41.3513 8.77778H45.6554L46.4314 10.8611H48.5541L44.8942 1.13889H42.1126L38.4526 10.8611ZM41.9662 7.11111L43.357 3.22222H43.6498L45.0406 7.11111H41.9662Z" fill="white"/>
<path d="M49.9512 10.8611H53.6844C56.4513 10.8611 58.662 8.77778 58.662 6C58.662 3.22222 56.4513 1.13889 53.6844 1.13889H49.9512V10.8611ZM51.8544 9.125V2.875H53.6844C55.4412 2.875 56.7588 4.11111 56.7588 6C56.7588 7.88889 55.4412 9.125 53.6844 9.125H51.8544Z" fill="white"/>
<path d="M59.3253 10.8611H61.4481L62.224 8.77778H66.5282L67.3041 10.8611H69.4269L65.7669 1.13889H62.9853L59.3253 10.8611ZM62.8389 7.11111L64.2297 3.22222H64.5225L65.9133 7.11111H62.8389Z" fill="white"/>
<path d="M70.8239 10.8611H72.7271V4.125H73.0199L75.4355 10.8611H77.4851L79.9007 4.125H80.1935V10.8611H82.0967V1.13889H79.0223L76.6067 7.94444H76.3139L73.8983 1.13889H70.8239V10.8611Z" fill="white"/>
<path d="M83.9987 7.80556C83.9987 9.625 85.5359 11 88.1711 11C90.8063 11 92.1239 9.75 92.1239 8.08333C92.1239 6.47222 91.1869 5.65278 89.1227 5.30556L87.5123 5.02778C86.4143 4.84722 86.1215 4.47222 86.1215 3.91667C86.1215 3.20833 86.6925 2.66667 88.0247 2.66667C89.3569 2.66667 90.0743 3.36111 90.0743 4.19444H91.9775C91.9775 2.375 90.6599 1 88.0247 1C85.6091 1 84.2183 2.30556 84.2183 3.91667C84.2183 5.30556 85.0089 6.27778 86.7803 6.55556L88.5371 6.83333C89.8547 7.05556 90.2207 7.51389 90.2207 8.08333C90.2207 8.79167 89.6351 9.33333 88.1711 9.33333C86.7803 9.33333 85.9019 8.65278 85.9019 7.80556H83.9987Z" fill="white"/>
<path d="M93.9504 10.8611H96V8.91667H93.9504V10.8611Z" fill="white"/>
</svg>
